<svg width="28" height="11" viewBox="0 0 28 11" fill="none" xmlns="http://www.w3.org/2000/svg">
<g clip-path="url(#clip0_6_1348)">
<path d="M26.81 4.61L19.7 0.0799973C19.47 -0.0700027 19.16 -2.74181e-06 19.01 0.229997C18.86 0.459997 18.93 0.769997 19.16 0.919997L24.83 4.53H0.5C0.22 4.53 0 4.75 0 5.03C0 5.31 0.22 5.53 0.5 5.53H24.83L19.16 9.14C18.93 9.29 18.86 9.6 19.01 9.83C19.11 9.98 19.27 10.06 19.43 10.06C19.52 10.06 19.61 10.03 19.7 9.98L26.81 5.45C26.95 5.36 27.04 5.2 27.04 5.03C27.04 4.86 26.95 4.7 26.81 4.61Z" fill="#38B6CD"/>
</g>
<defs>
<clipPath id="clip0_6_1348">
<rect width="27.05" height="10.06" fill="white"/>
</clipPath>
</defs>
</svg>
