<svg width="102" height="102" viewBox="0 0 102 102" fill="none" xmlns="http://www.w3.org/2000/svg">
<g clip-path="url(#clip0_46_189)">
<path d="M102 51C102 64.617 96.696 77.4307 87.0697 87.0697C77.4435 96.696 64.6297 102 51.0127 102C49.3042 102 47.9272 100.623 47.9272 98.9145C47.9272 97.206 49.3042 95.829 51.0127 95.829C62.985 95.829 74.2433 91.1625 82.7093 82.6965C91.1753 74.2305 95.8417 62.9722 95.8417 51C95.8417 39.0277 91.1753 27.7695 82.7093 19.3035C74.2433 10.8375 62.985 6.171 51.0127 6.171C39.0405 6.171 27.7822 10.8375 19.3162 19.3035C10.8502 27.7695 6.18375 39.0277 6.18375 51C6.18375 62.9722 10.8502 74.2305 19.3162 82.6965C19.4565 82.8367 19.584 82.9642 19.7243 83.0917V81.7402C19.7243 80.0317 21.1012 78.6547 22.8097 78.6547C24.5182 78.6547 25.8952 80.0317 25.8952 81.7402V90.5505C25.8952 92.259 24.5182 93.636 22.8097 93.636H13.9995C12.291 93.636 10.914 92.259 10.914 90.5505C10.914 88.842 12.291 87.465 13.9995 87.465H15.3637L14.943 87.057C5.304 77.4307 0 64.617 0 51C0 37.383 5.304 24.5693 14.943 14.943C24.5693 5.304 37.3703 0 51 0C64.6297 0 77.4307 5.304 87.057 14.943C96.6833 24.5693 102 37.383 102 51ZM44.5612 57.0435L35.4705 47.7743C33.099 45.3517 29.1975 45.3135 26.775 47.6978C24.3525 50.082 24.3143 53.9835 26.7113 56.3932L40.3792 70.329C40.5322 70.4948 40.698 70.6478 40.8637 70.788C43.4392 72.9938 47.328 72.7005 49.5337 70.1123L75.582 39.831C77.7878 37.2555 77.4945 33.3667 74.9062 31.161C72.3307 28.9552 68.442 29.2485 66.2363 31.8367L44.574 57.0307L44.5612 57.0435Z" fill="white"/>
</g>
<defs>
<clipPath id="clip0_46_189">
<rect width="102" height="102" fill="white"/>
</clipPath>
</defs>
</svg>
