<svg width="24" height="24" viewBox="0 0 24 24" fill="none" xmlns="http://www.w3.org/2000/svg">
<path d="M23.057 7.32892C22.4527 5.89996 21.5874 4.61653 20.4857 3.51483C19.3839 2.41313 18.1005 1.54782 16.6715 0.943486C15.1916 0.317489 13.62 0 12.0003 0C10.3806 0 8.80896 0.317489 7.329 0.943222C5.90002 1.54756 4.61658 2.41286 3.51487 3.51457C2.41315 4.61627 1.54784 5.89969 0.943497 7.32866C0.317492 8.80887 0 10.3805 0 12.0001C0 13.6198 0.317492 15.1914 0.943233 16.6713C1.54758 18.1003 2.41289 19.3837 3.5146 20.4854C4.61632 21.5871 5.89976 22.4524 7.32874 23.0568C8.8087 23.6828 10.3803 24 12 24C13.6197 24 15.1913 23.6825 16.6713 23.0568C18.1002 22.4524 19.3837 21.5871 20.4854 20.4854C21.5871 19.3837 22.4524 18.1003 23.0568 16.6713C23.6828 15.1914 24 13.6198 24 12.0001C24 10.3805 23.6828 8.80887 23.057 7.32892ZM16.8823 15.5937C17.2381 15.9495 17.2381 16.5263 16.8823 16.8821C16.7045 17.0599 16.4713 17.1489 16.2381 17.1489C16.0048 17.1489 15.7719 17.0599 15.5938 16.8821L12 13.2883L8.40615 16.8821C8.22839 17.0599 7.99516 17.1489 7.76192 17.1489C7.52869 17.1489 7.29572 17.0599 7.1177 16.8821C6.7619 16.5263 6.7619 15.9495 7.1177 15.5937L10.7115 11.9999L7.1177 8.40606C6.7619 8.05027 6.7619 7.4734 7.1177 7.11762C7.47349 6.76183 8.05036 6.76183 8.40615 7.11762L12 10.7114L15.5938 7.11762C15.9496 6.76183 16.5265 6.76183 16.8823 7.11762C17.2381 7.4734 17.2381 8.05027 16.8823 8.40606L13.2885 11.9999L16.8823 15.5937Z" fill="#EA4444"/>
</svg>
