<svg width="13" height="13" viewBox="0 0 13 13" fill="none" xmlns="http://www.w3.org/2000/svg">
<g clip-path="url(#clip0_5_550)">
<path d="M6.38 0C2.86 0 0 2.86 0 6.38C0 9.9 2.86 12.76 6.38 12.76C9.9 12.76 12.76 9.9 12.76 6.38C12.76 2.86 9.9 0 6.38 0ZM8.27 5.88L8.16 6.73C8.14 6.87 8.02 6.98 7.88 6.98H6.5V10.55C6.35 10.56 6.21 10.57 6.06 10.57C5.73 10.57 5.4 10.54 5.09 10.47V6.98H4.03C3.93 6.98 3.85 6.9 3.85 6.8V5.73C3.85 5.63 3.93 5.55 4.03 5.55H5.09V3.95C5.09 2.97 5.88 2.17 6.86 2.17H8.1C8.2 2.17 8.28 2.25 8.28 2.35V3.42C8.28 3.52 8.2 3.6 8.1 3.6H7.21C6.82 3.6 6.5 3.92 6.5 4.31V5.56H7.99C8.16 5.56 8.29 5.71 8.27 5.88Z" fill="white"/>
</g>
<defs>
<clipPath id="clip0_5_550">
<rect width="12.76" height="12.76" fill="white"/>
</clipPath>
</defs>
</svg>
