<svg width="403" height="268" viewBox="0 0 403 268" fill="none" xmlns="http://www.w3.org/2000/svg">
<g clip-path="url(#clip0_2002_18)">
<path d="M18.8657 203.106V219.696H0V171.201H18.8657V187.791H47.2281V171.201H66.1575V219.696H47.2281V203.106H18.8657ZM139.135 193.662V197.171C139.198 215.485 124.284 220.845 106.056 220.845C87.8276 220.845 72.8498 215.485 72.9772 197.171V193.662C72.9135 175.285 87.8276 169.989 106.056 169.989C124.284 169.989 139.135 175.349 139.135 193.662ZM120.205 194.81C120.333 186.898 113.768 185.43 106.056 185.367C98.2802 185.494 91.7155 186.898 91.843 194.81V196.023C91.7155 203.935 98.2802 205.403 106.056 205.53C113.768 205.403 120.333 203.999 120.205 196.023V194.81ZM144.743 171.137H168.389L187.255 195.385L206.185 171.137H229.83V219.632H210.965V193.726L192.035 219.632H182.602L163.673 193.726V219.632H144.807V171.137H144.743ZM259.722 171.137V219.632H240.793V171.137H259.722ZM331.425 199.596C330.214 215.995 315.873 220.909 298.41 220.909C280.245 220.909 265.204 215.612 265.331 197.235V193.726C265.267 175.412 280.245 170.116 298.41 170.052C315.873 170.052 330.214 175.03 331.425 191.365H312.049C310.265 186.579 304.911 185.494 298.41 185.494C290.698 185.622 284.133 186.962 284.261 194.938V196.15C284.133 204.063 290.698 205.53 298.41 205.594C304.911 205.594 310.328 204.446 312.049 199.66H331.425V199.596ZM354.497 171.201H376.996L403 219.696H381.712L377.888 211.401H353.605L349.781 219.696H328.493L354.497 171.201ZM359.086 199.596H372.407L365.778 185.239L359.086 199.596Z" fill="white"/>
<path d="M142.831 244.007V268H138.88V257.535H127.599V268H123.647V244.007H127.599V254.281H138.88V244.007H142.831Z" fill="white"/>
<path d="M158.829 247.198V254.217H167.115V257.408H158.829V264.746H168.134V267.936H154.877V243.944H168.134V247.134H158.829V247.198Z" fill="white"/>
<path d="M194.266 263.087H184.26L182.539 268H178.46L187.064 244.008H191.589L200.193 268H196.051L194.33 263.087H194.266ZM193.183 259.896L189.295 248.73L185.343 259.896H193.183Z" fill="white"/>
<path d="M214.661 264.873H222.756V268.064H210.71V244.071H214.661V264.873Z" fill="white"/>
<path d="M248.441 244.008V247.198H242.068V268H238.116V247.198H231.679V244.008H248.377H248.441Z" fill="white"/>
<path d="M278.397 244.008V268H274.445V257.535H263.164V268H259.213V244.008H263.164V254.281H274.445V244.008H278.397Z" fill="white"/>
<path d="M138.051 78.741C138.179 75.8695 137.478 73.1257 136.075 70.7648L148.249 57.301C149.651 58.2581 151.244 58.8324 153.029 58.8962C158.255 59.1514 162.653 55.1953 162.972 49.9629C163.227 44.7305 159.275 40.3276 154.049 40.0086C152.902 40.0086 151.818 40.1362 150.735 40.4553L142.449 24.2476C145.062 21.8867 146.847 18.5048 147.038 14.6124C147.42 6.95525 141.557 0.382867 133.908 1.0265e-05C126.26 -0.382847 119.695 5.48763 119.313 13.1448C118.931 20.8019 124.794 27.3743 132.443 27.7572C133.717 27.821 134.928 27.7572 136.075 27.4381L147.102 42.561C146.209 43.3905 145.508 44.3476 144.998 45.4324L131.996 45.0495C131.678 40.9019 128.363 37.5838 124.157 37.3924C119.568 37.1372 115.616 40.7105 115.425 45.3048C115.17 49.8991 118.739 53.8553 123.328 54.0467C126.579 54.2381 129.447 52.5153 130.977 49.8991L144.361 51.3029C144.552 52.26 144.871 53.0895 145.317 53.9191L132.124 66.4895C130.084 65.0857 127.662 64.2562 125.049 64.1286C117.401 63.7457 110.836 69.6162 110.454 77.2733C110.071 84.9305 115.935 91.5029 123.583 91.8857C131.232 92.2686 137.796 86.3981 138.179 78.741H138.051Z" fill="url(#paint0_linear_2002_18)"/>
<path d="M165.075 114.474C160.486 113.9 156.343 117.09 155.77 121.685C155.642 122.514 155.706 123.344 155.77 124.173L150.543 126.917C149.332 124.429 147.42 122.323 144.998 120.855L150.352 103.563C155.196 103.818 159.53 100.245 160.168 95.3314C160.805 90.1629 157.172 85.441 152.009 84.7391C146.847 84.101 142.13 87.7381 141.429 92.9067C140.919 96.7991 142.895 100.436 146.018 102.287L139.453 119.005C131.996 118.239 125.24 123.535 124.284 131.065C123.328 138.658 128.682 145.613 136.33 146.634C143.915 147.591 150.862 142.231 151.882 134.574C151.946 133.936 152.009 133.298 151.946 132.66L158.255 128.768C159.466 129.98 161.124 130.746 162.908 131.001C167.497 131.575 171.64 128.385 172.214 123.79C172.787 119.196 169.6 115.049 165.011 114.474H165.075Z" fill="url(#paint1_linear_2002_18)"/>
<path d="M162.462 32.4791C166.44 32.4791 169.664 29.2508 169.664 25.2686C169.664 21.2863 166.44 18.0581 162.462 18.0581C158.484 18.0581 155.26 21.2863 155.26 25.2686C155.26 29.2508 158.484 32.4791 162.462 32.4791Z" fill="url(#paint2_linear_2002_18)"/>
<path d="M125.814 112.56C129.792 112.56 133.016 109.332 133.016 105.35C133.016 101.367 129.792 98.139 125.814 98.139C121.836 98.139 118.612 101.367 118.612 105.35C118.612 109.332 121.836 112.56 125.814 112.56Z" fill="url(#paint3_linear_2002_18)"/>
<path d="M263.419 68.0848C263.292 70.9562 263.993 73.7 265.395 76.061L253.221 89.5248C251.819 88.5676 250.226 87.9933 248.441 87.9295C243.215 87.6743 238.817 91.6305 238.498 96.8629C238.244 102.095 242.195 106.498 247.421 106.817C248.569 106.817 249.652 106.69 250.736 106.37L259.021 122.578C256.408 124.939 254.624 128.321 254.432 132.213C254.05 139.87 259.914 146.443 267.562 146.826C275.21 147.209 281.775 141.338 282.157 133.681C282.54 126.024 276.676 119.451 269.028 119.069C267.753 119.005 266.542 119.069 265.395 119.388L254.369 104.265C255.261 103.435 255.962 102.478 256.472 101.393L269.474 101.776C269.793 105.924 273.107 109.242 277.313 109.433C281.902 109.689 285.854 106.115 286.045 101.521C286.3 96.9267 282.731 92.9705 278.142 92.7791C274.892 92.5876 272.023 94.3105 270.494 96.9267L257.109 95.5229C256.918 94.5657 256.599 93.7362 256.153 92.9067L269.347 80.3362C271.386 81.74 273.808 82.5695 276.421 82.6972C284.069 83.08 290.634 77.2095 291.017 69.5524C291.399 61.8952 285.535 55.3229 277.887 54.94C270.239 54.5572 263.674 60.4276 263.292 68.0848H263.419Z" fill="url(#paint4_linear_2002_18)"/>
<path d="M236.395 32.2876C240.984 32.8619 245.127 29.6714 245.701 25.0771C245.828 24.2476 245.764 23.4181 245.701 22.5886L250.927 19.8448C252.138 22.3333 254.05 24.439 256.472 25.9067L251.118 43.199C246.274 42.9438 241.94 46.5171 241.303 51.4305C240.666 56.599 244.298 61.3209 249.461 62.0229C254.624 62.6609 259.34 59.0238 260.041 53.8552C260.551 49.9628 258.575 46.3257 255.452 44.4752L262.017 27.7571C269.474 28.5228 276.23 23.2267 277.186 15.6971C278.142 8.1038 272.788 1.14856 265.14 0.127609C257.555 -0.829534 250.608 4.53047 249.589 12.1876C249.525 12.8257 249.461 13.4638 249.525 14.1019L243.215 17.9943C242.004 16.7819 240.347 16.0162 238.562 15.7609C233.973 15.1867 229.831 18.3771 229.257 22.9714C228.683 27.5657 231.87 31.7133 236.459 32.2876H236.395Z" fill="url(#paint5_linear_2002_18)"/>
<path d="M238.945 128.704C242.922 128.704 246.147 125.476 246.147 121.493C246.147 117.511 242.922 114.283 238.945 114.283C234.967 114.283 231.743 117.511 231.743 121.493C231.743 125.476 234.967 128.704 238.945 128.704Z" fill="url(#paint6_linear_2002_18)"/>
<path d="M275.593 48.6867C279.57 48.6867 282.795 45.4584 282.795 41.4762C282.795 37.494 279.57 34.2657 275.593 34.2657C271.615 34.2657 268.391 37.494 268.391 41.4762C268.391 45.4584 271.615 48.6867 275.593 48.6867Z" fill="url(#paint7_linear_2002_18)"/>
<path d="M227.472 59.7257C221.162 59.7257 215.809 63.9371 214.152 69.7438H185.279C183.622 63.9371 178.268 59.7257 171.959 59.7257C164.31 59.7257 158.064 65.979 158.064 73.6362C158.064 81.2933 164.31 87.5467 171.959 87.5467C178.651 87.5467 184.26 82.7609 185.534 76.4438H213.833C215.108 82.7609 220.716 87.5467 227.409 87.5467C235.057 87.5467 241.303 81.2933 241.303 73.6362C241.303 65.979 235.057 59.7257 227.409 59.7257H227.472Z" fill="url(#paint8_linear_2002_18)"/>
</g>
<defs>
<linearGradient id="paint0_linear_2002_18" x1="136.585" y1="73.5086" x2="136.585" y2="20.8657" gradientUnits="userSpaceOnUse">
<stop stop-color="#B087BD"/>
<stop offset="0.14" stop-color="#A687BE"/>
<stop offset="0.32" stop-color="#9488C0"/>
<stop offset="0.67" stop-color="#738DC8"/>
<stop offset="0.86" stop-color="#73A1D6"/>
<stop offset="0.99" stop-color="#74B2E2"/>
</linearGradient>
<linearGradient id="paint1_linear_2002_18" x1="146.901" y1="138.565" x2="152.826" y2="92.2343" gradientUnits="userSpaceOnUse">
<stop stop-color="#B087BD"/>
<stop offset="0.14" stop-color="#A687BE"/>
<stop offset="0.32" stop-color="#9488C0"/>
<stop offset="0.67" stop-color="#738DC8"/>
<stop offset="0.86" stop-color="#73A1D6"/>
<stop offset="0.99" stop-color="#74B2E2"/>
</linearGradient>
<linearGradient id="paint2_linear_2002_18" x1="162.462" y1="33.0533" x2="162.462" y2="18.6324" gradientUnits="userSpaceOnUse">
<stop stop-color="#B087BD"/>
<stop offset="0.14" stop-color="#A687BE"/>
<stop offset="0.32" stop-color="#9488C0"/>
<stop offset="0.67" stop-color="#738DC8"/>
<stop offset="0.86" stop-color="#73A1D6"/>
<stop offset="0.99" stop-color="#74B2E2"/>
</linearGradient>
<linearGradient id="paint3_linear_2002_18" x1="125.814" y1="110.39" x2="125.814" y2="100.245" gradientUnits="userSpaceOnUse">
<stop stop-color="#B087BD"/>
<stop offset="0.14" stop-color="#A687BE"/>
<stop offset="0.32" stop-color="#9488C0"/>
<stop offset="0.67" stop-color="#738DC8"/>
<stop offset="0.86" stop-color="#73A1D6"/>
<stop offset="0.99" stop-color="#74B2E2"/>
</linearGradient>
<linearGradient id="paint4_linear_2002_18" x1="264.885" y1="73.3172" x2="264.885" y2="125.96" gradientUnits="userSpaceOnUse">
<stop stop-color="#B087BD"/>
<stop offset="0.14" stop-color="#A687BE"/>
<stop offset="0.32" stop-color="#9488C0"/>
<stop offset="0.67" stop-color="#738DC8"/>
<stop offset="0.86" stop-color="#73A1D6"/>
<stop offset="0.99" stop-color="#74B2E2"/>
</linearGradient>
<linearGradient id="paint5_linear_2002_18" x1="254.814" y1="8.10863" x2="248.889" y2="54.4389" gradientUnits="userSpaceOnUse">
<stop stop-color="#B087BD"/>
<stop offset="0.14" stop-color="#A687BE"/>
<stop offset="0.32" stop-color="#9488C0"/>
<stop offset="0.67" stop-color="#738DC8"/>
<stop offset="0.86" stop-color="#73A1D6"/>
<stop offset="0.99" stop-color="#74B2E2"/>
</linearGradient>
<linearGradient id="paint6_linear_2002_18" x1="239.008" y1="113.709" x2="239.008" y2="128.193" gradientUnits="userSpaceOnUse">
<stop stop-color="#B087BD"/>
<stop offset="0.14" stop-color="#A687BE"/>
<stop offset="0.32" stop-color="#9488C0"/>
<stop offset="0.67" stop-color="#738DC8"/>
<stop offset="0.86" stop-color="#73A1D6"/>
<stop offset="0.99" stop-color="#74B2E2"/>
</linearGradient>
<linearGradient id="paint7_linear_2002_18" x1="275.656" y1="36.4352" x2="275.656" y2="46.581" gradientUnits="userSpaceOnUse">
<stop stop-color="#B087BD"/>
<stop offset="0.14" stop-color="#A687BE"/>
<stop offset="0.32" stop-color="#9488C0"/>
<stop offset="0.67" stop-color="#738DC8"/>
<stop offset="0.86" stop-color="#73A1D6"/>
<stop offset="0.99" stop-color="#74B2E2"/>
</linearGradient>
<linearGradient id="paint8_linear_2002_18" x1="199.684" y1="83.9733" x2="199.684" y2="60.9381" gradientUnits="userSpaceOnUse">
<stop stop-color="#B087BD"/>
<stop offset="0.14" stop-color="#A687BE"/>
<stop offset="0.32" stop-color="#9488C0"/>
<stop offset="0.67" stop-color="#738DC8"/>
<stop offset="0.86" stop-color="#73A1D6"/>
<stop offset="0.99" stop-color="#74B2E2"/>
</linearGradient>
<clipPath id="clip0_2002_18">
<rect width="403" height="268" fill="white"/>
</clipPath>
</defs>
</svg>
