<svg width="91" height="75" viewBox="0 0 91 75" fill="none" xmlns="http://www.w3.org/2000/svg">
<g clip-path="url(#clip0_32_45)">
<path d="M13.9551 40.2215C14.0334 38.7377 13.6561 37.3407 12.9441 36.161L19.0672 29.2776C19.7579 29.7481 20.5767 30.0521 21.4667 30.0955C24.0868 30.233 26.3225 28.1919 26.4577 25.5284C26.593 22.8648 24.5852 20.592 21.965 20.4545C21.3883 20.4256 20.833 20.5052 20.3132 20.6717L16.1338 12.3769C17.4652 11.161 18.3339 9.43107 18.4336 7.46958C18.64 3.55383 15.6781 0.217119 11.8262 0.00721768C7.97436 -0.195446 4.69207 2.81556 4.49271 6.73131C4.29335 10.6471 7.24813 13.9838 11.1 14.1937C11.7266 14.2299 12.3389 14.1647 12.9298 14.0417L18.4763 21.7574C18.042 22.1699 17.6788 22.6694 17.4225 23.2194L10.8864 23.0168C10.7298 20.9105 9.05659 19.2024 6.92773 19.0938C4.61375 18.9707 2.64864 20.773 2.5276 23.1253C2.40656 25.4777 4.17943 27.4754 6.49341 27.5984C8.11676 27.6853 9.56923 26.8167 10.3311 25.4849L17.0594 26.2015C17.152 26.6792 17.3086 27.1279 17.5293 27.5478L10.8935 33.9823C9.87538 33.2802 8.66499 32.8315 7.3478 32.7663C3.49591 32.5564 0.213621 35.5602 0.0071425 39.476C-0.192216 43.3917 2.76256 46.7284 6.61445 46.9383C10.4663 47.141 13.7486 44.1372 13.9551 40.2215Z" fill="#201635"/>
<path d="M27.5613 58.4901C25.2687 58.1934 23.1683 59.8436 22.8764 62.1743C22.8194 62.6085 22.8337 63.0356 22.9049 63.4409L20.2918 64.8306C19.6867 63.5495 18.7183 62.471 17.4937 61.7472L20.1922 52.9313C22.6414 53.0472 24.8059 51.2377 25.1192 48.7188C25.4467 46.077 23.6097 43.6595 21.0038 43.3193C18.4051 42.9864 16.027 44.8538 15.6924 47.5029C15.4432 49.4861 16.4186 51.339 18.0135 52.2872L14.6956 60.8425C10.9362 60.4516 7.54003 63.1731 7.05587 67.002C6.57172 70.8888 9.2773 74.4426 13.1007 74.9421C16.9241 75.4342 20.42 72.6838 20.9113 68.797C20.954 68.4641 20.9611 68.1311 20.9611 67.8054L24.1366 65.8005C24.7632 66.4085 25.5677 66.8283 26.4933 66.9441C28.7859 67.2408 30.8863 65.5906 31.1782 63.26C31.4702 60.9293 29.8468 58.7941 27.5542 58.4974L27.5613 58.4901Z" fill="#201635"/>
<path d="M26.2584 16.6112C28.2638 16.6112 29.8895 14.9585 29.8895 12.9198C29.8895 10.8811 28.2638 9.22845 26.2584 9.22845C24.2529 9.22845 22.6272 10.8811 22.6272 12.9198C22.6272 14.9585 24.2529 16.6112 26.2584 16.6112Z" fill="#201635"/>
<path d="M7.81769 57.5058C9.82313 57.5058 11.4489 55.8531 11.4489 53.8144C11.4489 51.7757 9.82313 50.123 7.81769 50.123C5.81225 50.123 4.18652 51.7757 4.18652 53.8144C4.18652 55.8531 5.81225 57.5058 7.81769 57.5058Z" fill="#201635"/>
<path d="M77.0449 34.7785C76.9666 36.2623 77.3439 37.6593 78.0559 38.839L71.9328 45.7224C71.2421 45.2519 70.4234 44.9479 69.5334 44.9045C66.9132 44.767 64.6776 46.8081 64.5423 49.4716C64.407 52.1352 66.4148 54.4079 69.035 54.5455C69.6117 54.5744 70.167 54.4948 70.6868 54.3283L74.8662 62.6231C73.5348 63.839 72.6661 65.5689 72.5665 67.5304C72.3671 71.4462 75.3219 74.7829 79.1738 74.9928C83.0257 75.1954 86.308 72.1917 86.5144 68.2759C86.7138 64.3602 83.759 61.0235 79.9071 60.8136C79.2806 60.7774 78.6683 60.8425 78.0773 60.9656L72.5309 53.2499C72.9652 52.8373 73.3283 52.3379 73.5846 51.7878L80.1207 51.9905C80.2774 54.0967 81.9505 55.8049 84.0794 55.9134C86.3934 56.0365 88.3585 54.2342 88.4795 51.8819C88.6006 49.5295 86.8277 47.5319 84.5137 47.4088C82.8904 47.322 81.4379 48.1905 80.6761 49.5223L73.9477 48.8057C73.8552 48.328 73.6985 47.8793 73.4778 47.4595L80.1136 41.0249C81.1317 41.727 82.3421 42.1758 83.6593 42.2409C87.5112 42.4436 90.7935 39.4398 91 35.524C91.1993 31.6083 88.2446 28.2716 84.3927 28.0617C80.5408 27.859 77.2585 30.8628 77.052 34.7785H77.0449Z" fill="#201635"/>
<path d="M63.4387 16.5098C65.7313 16.8066 67.8317 15.1563 68.1236 12.8257C68.1806 12.3914 68.1664 11.9644 68.0952 11.5591L70.7082 10.1694C71.3134 11.4505 72.2817 12.5289 73.5063 13.2527L70.8079 22.0686C68.3586 21.9528 66.1941 23.7623 65.8809 26.2811C65.5533 28.923 67.3903 31.3405 69.9962 31.6807C72.595 32.0136 74.973 30.1462 75.3077 27.4971C75.5569 25.5139 74.5814 23.661 72.9866 22.7128L76.3045 14.1575C80.0638 14.5483 83.46 11.8269 83.9442 7.99797C84.4283 4.11117 81.7227 0.557323 77.8993 0.0579018C74.0759 -0.434281 70.58 2.31615 70.0887 6.20295C70.046 6.5359 70.0389 6.86884 70.0389 7.19455L66.8634 9.19948C66.2369 8.59149 65.4323 8.17168 64.5067 8.05587C62.2141 7.75912 60.1137 9.40938 59.8218 11.74C59.5299 14.0706 61.1532 16.2058 63.4458 16.5026L63.4387 16.5098Z" fill="#201635"/>
<path d="M64.7416 65.7715C66.7471 65.7715 68.3728 64.1189 68.3728 62.0802C68.3728 60.0415 66.7471 58.3888 64.7416 58.3888C62.7362 58.3888 61.1105 60.0415 61.1105 62.0802C61.1105 64.1189 62.7362 65.7715 64.7416 65.7715Z" fill="#201635"/>
<path d="M83.1823 24.8769C85.1878 24.8769 86.8135 23.2243 86.8135 21.1856C86.8135 19.1469 85.1878 17.4942 83.1823 17.4942C81.1769 17.4942 79.5511 19.1469 79.5511 21.1856C79.5511 23.2243 81.1769 24.8769 83.1823 24.8769Z" fill="#201635"/>
<path d="M58.9603 30.5153C55.7848 30.5153 53.1077 32.6722 52.2604 35.6253H37.7286C36.8813 32.6722 34.2042 30.5153 31.0287 30.5153C27.1697 30.5153 24.0441 33.6928 24.0441 37.6158C24.0441 41.5388 27.1697 44.7162 31.0287 44.7162C34.4107 44.7162 37.2231 42.277 37.871 39.0344H52.118C52.7659 42.277 55.5854 44.7162 58.9603 44.7162C62.8193 44.7162 65.9449 41.5388 65.9449 37.6158C65.9449 33.6928 62.8193 30.5153 58.9603 30.5153Z" fill="#201635"/>
</g>
<defs>
<clipPath id="clip0_32_45">
<rect width="91" height="75" fill="white"/>
</clipPath>
</defs>
</svg>
