<svg width="13" height="13" viewBox="0 0 13 13" fill="none" xmlns="http://www.w3.org/2000/svg">
<g clip-path="url(#clip0_5_522)">
<path d="M6.38 0C2.86 0 0 2.86 0 6.38C0 9.9 2.86 12.76 6.38 12.76C9.9 12.76 12.76 9.9 12.76 6.38C12.76 2.86 9.9 0 6.38 0ZM9.72 8.11C9.72 9 9 9.73 8.1 9.73H4.64C3.75 9.73 3.02 9.01 3.02 8.11V4.65C3.02 3.76 3.74 3.03 4.64 3.03H8.1C8.99 3.03 9.72 3.75 9.72 4.65V8.11Z" fill="white"/>
<path d="M7.98999 3.60999H4.75999C4.11999 3.60999 3.60999 4.12999 3.60999 4.75999V7.98999C3.60999 8.62999 4.12999 9.13999 4.75999 9.13999H7.98999C8.62999 9.13999 9.13999 8.61999 9.13999 7.98999V4.75999C9.13999 4.11999 8.61999 3.60999 7.98999 3.60999ZM6.37999 8.10999C5.41999 8.10999 4.64999 7.32999 4.64999 6.37999C4.64999 5.42999 5.42999 4.64999 6.37999 4.64999C7.32999 4.64999 8.10999 5.42999 8.10999 6.37999C8.10999 7.32999 7.32999 8.10999 6.37999 8.10999ZM8.22999 4.87999C8.03999 4.87999 7.87999 4.71999 7.87999 4.52999C7.87999 4.33999 8.03999 4.17999 8.22999 4.17999C8.41999 4.17999 8.57999 4.33999 8.57999 4.52999C8.57999 4.71999 8.41999 4.87999 8.22999 4.87999Z" fill="white"/>
<path d="M6.37998 7.52998C7.01511 7.52998 7.52998 7.01511 7.52998 6.37998C7.52998 5.74485 7.01511 5.22998 6.37998 5.22998C5.74485 5.22998 5.22998 5.74485 5.22998 6.37998C5.22998 7.01511 5.74485 7.52998 6.37998 7.52998Z" fill="white"/>
</g>
<defs>
<clipPath id="clip0_5_522">
<rect width="12.76" height="12.76" fill="white"/>
</clipPath>
</defs>
</svg>
