<svg width="106" height="105" viewBox="0 0 106 105" fill="none" xmlns="http://www.w3.org/2000/svg">
<g clip-path="url(#clip0_46_68)">
<path d="M49.2051 3.546C49.3264 1.47196 51.1328 -0.120371 53.2224 5.75804e-05C55.1501 0.107105 56.6735 1.63253 56.7948 3.546V22.2793C56.6735 24.3533 54.867 25.9456 52.7775 25.8252C50.8497 25.7182 49.3264 24.1927 49.2051 22.2793V3.546Z" fill="white"/>
<path d="M15.5166 20.4862C14.0337 19.0678 13.9798 16.7262 15.4087 15.2409C15.4492 15.2007 15.4896 15.1606 15.5166 15.1338C16.9995 13.6619 19.426 13.6619 20.9089 15.1338L34.2819 28.4077C35.7514 29.8796 35.7244 32.2614 34.2415 33.7199C32.7586 35.1784 30.359 35.1517 28.8896 33.6798L15.5166 20.4996V20.4862Z" fill="white"/>
<path d="M3.76116 56.0259C1.68511 56.0259 0 54.3533 0 52.2926C0 50.2319 1.68511 48.5593 3.76116 48.5593H22.6344C24.7104 48.5593 26.3955 50.2319 26.3955 52.2926C26.3955 54.3533 24.7104 56.0259 22.6344 56.0259H3.76116Z" fill="white"/>
<path d="M20.8818 89.3979C19.3989 90.8698 16.9724 90.8698 15.4895 89.3979C14.0066 87.9795 13.9527 85.6378 15.3816 84.1526C15.4221 84.1124 15.4625 84.0723 15.4895 84.0455L28.8625 70.7716C30.3454 69.2997 32.772 69.2997 34.2548 70.7716C35.7377 72.2435 35.7377 74.6521 34.2548 76.124L20.8818 89.3979Z" fill="white"/>
<path d="M56.7948 100.999C56.9161 103.073 55.3254 104.866 53.2224 104.987C51.1328 105.107 49.3264 103.528 49.2051 101.441C49.2051 101.293 49.2051 101.146 49.2051 100.986V82.2524C49.3264 80.1784 51.1328 78.5861 53.2224 78.7065C55.1501 78.8135 56.6735 80.339 56.7948 82.2524V100.986V100.999Z" fill="white"/>
<path d="M90.4835 84.099C91.9664 85.4906 92.0338 87.8189 90.6318 89.3042C90.5779 89.3577 90.5374 89.4113 90.4835 89.4514C89.0006 90.9233 86.601 90.9367 85.1046 89.4648C85.1046 89.4648 85.1046 89.4648 85.0912 89.4514L71.7586 76.124C70.2757 74.6655 70.2487 72.2837 71.7181 70.8118C71.7181 70.8118 71.7451 70.785 71.7586 70.7716C73.255 69.2997 75.6546 69.2997 77.1509 70.7716L90.4835 84.099Z" fill="white"/>
<path d="M102.239 48.5593C104.315 48.5593 106 50.2319 106 52.2926C106 54.3533 104.315 56.0259 102.239 56.0259H83.3657C81.2896 56.0259 79.6045 54.3533 79.6045 52.2926C79.6045 50.2319 81.2896 48.5593 83.3657 48.5593H102.239Z" fill="white"/>
</g>
<defs>
<clipPath id="clip0_46_68">
<rect width="106" height="105" fill="white"/>
</clipPath>
</defs>
</svg>
