<svg width="13" height="13" viewBox="0 0 13 13" fill="none" xmlns="http://www.w3.org/2000/svg">
<g clip-path="url(#clip0_5_543)">
<path d="M6.38 0C2.86 0 0 2.86 0 6.38C0 9.9 2.86 12.76 6.38 12.76C9.9 12.76 12.76 9.9 12.76 6.38C12.76 2.86 9.9 0 6.38 0ZM4.8 9.27C4.8 9.27 4.77 9.33 4.74 9.33H3.49C3.49 9.33 3.43 9.3 3.43 9.27V5.29C3.43 5.29 3.46 5.23 3.49 5.23H4.74C4.74 5.23 4.8 5.26 4.8 5.29V9.27ZM4.12 4.67C3.67 4.67 3.3 4.3 3.3 3.85C3.3 3.4 3.67 3.03 4.12 3.03C4.57 3.03 4.94 3.4 4.94 3.85C4.94 4.3 4.57 4.67 4.12 4.67ZM9.46 9.05C9.46 9.2 9.34 9.32 9.19 9.32H8.37C8.22 9.32 8.1 9.2 8.1 9.05V7.13C8.1 6.75 7.79 6.45 7.42 6.45C7.05 6.45 6.74 6.76 6.74 7.13V9.05C6.74 9.2 6.62 9.32 6.47 9.32H5.65C5.5 9.32 5.38 9.2 5.38 9.05V5.49C5.38 5.34 5.5 5.22 5.65 5.22H6.47C6.62 5.22 6.74 5.34 6.74 5.49V5.67C7.01 5.32 7.47 5.08 7.97 5.08C8.73 5.08 9.48 5.63 9.48 6.72V9.05H9.46Z" fill="white"/>
</g>
<defs>
<clipPath id="clip0_5_543">
<rect width="12.76" height="12.76" fill="white"/>
</clipPath>
</defs>
</svg>
