<svg width="79" height="48" viewBox="0 0 79 48" fill="none" xmlns="http://www.w3.org/2000/svg">
<g clip-path="url(#clip0_32_92)">
<path d="M24.6316 27.5762L24.5503 15.0073L18.5623 25.0914H14.4618L8.47383 15.4427V27.5762H0V0H7.64329L16.6282 14.6938L25.3808 0H33.0241L33.1054 27.5762H24.6316Z" fill="#67FF9A"/>
<path d="M50.6571 14.8737L45.4299 27.8316C44.762 29.4862 43.9372 30.6473 42.9441 31.3149C41.9509 31.9826 40.7371 32.3135 39.2967 32.3135C38.5823 32.3135 37.8679 32.209 37.1477 32C36.4275 31.791 35.8584 31.5181 35.4402 31.1756L37.1826 27.5762C37.4439 27.7794 37.7459 27.9419 38.077 28.0638C38.4081 28.1858 38.7333 28.2496 39.0411 28.2496C39.6161 28.2496 40.0459 28.0813 40.3421 27.7387L34.9988 14.8737H40.3886L43.0138 21.6778L45.6854 14.8737H50.6571Z" fill="#67FF9A"/>
<path d="M64.3814 20.6444H61.8607V27.5762H52.5621V0H65.845C68.3947 0 70.6133 0.417997 72.5067 1.2598C74.4001 2.1016 75.8579 3.30914 76.8801 4.88244C77.9023 6.45573 78.4192 8.29608 78.4192 10.3977C78.4192 12.3657 77.972 14.09 77.0776 15.5588C76.1831 17.0276 74.8938 18.2003 73.2153 19.0653L79.0058 27.5762H69.0742L64.3872 20.6444H64.3814ZM68.0868 8.01742C67.4538 7.45428 66.5129 7.16981 65.2467 7.16981H61.8549V13.6313H65.2467C66.5071 13.6313 67.4538 13.3469 68.0868 12.7837C68.7199 12.2206 69.0335 11.4253 69.0335 10.4035C69.0335 9.38171 68.7199 8.58636 68.0868 8.02322V8.01742Z" fill="#67FF9A"/>
<path d="M9.60638 45.0218L9.58896 38.8331L6.55139 43.9303H5.47692L2.45677 38.9666V45.0218H0.220703V34.7112H2.19541L6.05771 41.1205L9.86193 34.7112H11.825L11.8541 45.0218H9.61219H9.60638Z" fill="#67FF9A"/>
<path d="M22.0064 37.0972L18.4229 45.5094C18.057 46.4209 17.6098 47.0653 17.0754 47.4369C16.5411 47.8084 15.8964 47.9942 15.1356 47.9942C14.7232 47.9942 14.3166 47.9303 13.9101 47.8026C13.5093 47.6749 13.1783 47.4949 12.9227 47.2743L13.7649 45.6371C13.9391 45.7939 14.1482 45.9158 14.3747 46.0029C14.607 46.09 14.8336 46.1364 15.0601 46.1364C15.3737 46.1364 15.6292 46.061 15.8267 45.91C16.0242 45.7591 16.1984 45.5036 16.3552 45.1495L16.3843 45.074L12.9518 37.0914H15.3272L17.5517 42.4673L19.7936 37.0914H22.0064V37.0972Z" fill="#67FF9A"/>
<path d="M33.8547 45.0218L31.8625 42.148H29.6671V45.0218H27.28V34.7112H31.7464C32.6582 34.7112 33.4539 34.8621 34.1276 35.1698C34.8013 35.4775 35.3183 35.9071 35.6842 36.4644C36.0501 37.0218 36.2301 37.6894 36.2301 38.4557C36.2301 39.2221 36.0443 39.8839 35.6784 40.4354C35.3125 40.9927 34.7839 41.4166 34.1102 41.7126L36.4218 45.0276H33.8547V45.0218ZM33.2506 37.1205C32.8789 36.8128 32.333 36.656 31.6128 36.656H29.6671V40.2496H31.6128C32.3272 40.2496 32.8731 40.0929 33.2506 39.7794C33.6223 39.4659 33.8082 39.0247 33.8082 38.4557C33.8082 37.8868 33.6223 37.434 33.2506 37.1205Z" fill="#67FF9A"/>
<path d="M45.6739 41.7068H39.6743C39.7846 42.2003 40.0402 42.5835 40.4409 42.8679C40.8417 43.1524 41.347 43.2975 41.9452 43.2975C42.3576 43.2975 42.7235 43.2337 43.0429 43.1118C43.3624 42.9899 43.6586 42.7925 43.9373 42.5312L45.1628 43.8549C44.4136 44.7083 43.3275 45.1379 41.8929 45.1379C40.9985 45.1379 40.2086 44.9637 39.5175 44.6154C38.8321 44.2671 38.2978 43.7852 37.9261 43.164C37.5544 42.5428 37.3685 41.8404 37.3685 41.0566C37.3685 40.2729 37.5544 39.582 37.9203 38.955C38.2862 38.3338 38.7973 37.8462 39.4362 37.4978C40.0809 37.1495 40.801 36.9753 41.5967 36.9753C42.3924 36.9753 43.0778 37.1437 43.705 37.4746C44.3323 37.8113 44.826 38.2874 45.1861 38.9086C45.5462 39.5356 45.7262 40.2555 45.7262 41.0798C45.7262 41.1089 45.7088 41.3179 45.6797 41.701L45.6739 41.7068ZM40.2957 39.1582C39.9415 39.4543 39.7266 39.8549 39.6453 40.3658H43.554C43.4727 39.8665 43.2578 39.4659 42.9035 39.164C42.5492 38.8621 42.1195 38.717 41.6083 38.717C41.0972 38.717 40.65 38.8621 40.2957 39.1582Z" fill="#67FF9A"/>
<path d="M53.9502 37.4862C54.5543 37.823 55.0305 38.3048 55.3732 38.9144C55.7159 39.5298 55.8901 40.2439 55.8901 41.0566C55.8901 41.8694 55.7159 42.5893 55.3732 43.1989C55.0305 43.8142 54.5543 44.2903 53.9502 44.627C53.3462 44.9637 52.6725 45.1379 51.9407 45.1379C50.9301 45.1379 50.1344 44.8186 49.5536 44.18V47.8781H47.2537V37.0915H49.4491V38.0029C50.0183 37.3179 50.8488 36.9695 51.9407 36.9695C52.6783 36.9695 53.3462 37.1379 53.9502 37.4804V37.4862ZM52.9977 42.6589C53.3753 42.2584 53.5669 41.7301 53.5669 41.0624C53.5669 40.3948 53.3753 39.8607 52.9977 39.4659C52.6202 39.0653 52.1382 38.8679 51.5458 38.8679C50.9533 38.8679 50.4713 39.0653 50.0938 39.4659C49.7162 39.8607 49.5246 40.3948 49.5246 41.0624C49.5246 41.7301 49.7162 42.2642 50.0938 42.6589C50.4713 43.0537 50.9533 43.2569 51.5458 43.2569C52.1382 43.2569 52.6202 43.0595 52.9977 42.6589Z" fill="#67FF9A"/>
<path d="M58.9509 44.6154C58.2888 44.2671 57.7719 43.7852 57.3944 43.164C57.0226 42.5428 56.8368 41.8404 56.8368 41.0566C56.8368 40.2729 57.0226 39.5704 57.3944 38.9492C57.7661 38.328 58.2888 37.8462 58.9509 37.4978C59.613 37.1495 60.3622 36.9753 61.1986 36.9753C62.0349 36.9753 62.7783 37.1495 63.4405 37.4978C64.0968 37.8462 64.6137 38.328 64.9912 38.9492C65.3629 39.5704 65.5487 40.2729 65.5487 41.0566C65.5487 41.8404 65.3629 42.5428 64.9912 43.164C64.6195 43.7852 64.1026 44.2671 63.4405 44.6154C62.7842 44.9637 62.0349 45.1379 61.1986 45.1379C60.3622 45.1379 59.613 44.9637 58.9509 44.6154ZM62.6506 42.6589C63.0281 42.2584 63.2197 41.7301 63.2197 41.0624C63.2197 40.3948 63.0281 39.8607 62.6506 39.4659C62.2731 39.0653 61.791 38.8679 61.1986 38.8679C60.6062 38.8679 60.1241 39.0653 59.7408 39.4659C59.3575 39.8607 59.1658 40.3948 59.1658 41.0624C59.1658 41.7301 59.3575 42.2642 59.7408 42.6589C60.1241 43.0595 60.612 43.2569 61.1986 43.2569C61.7852 43.2569 62.2731 43.0595 62.6506 42.6589Z" fill="#67FF9A"/>
<path d="M70.3868 37.2714C70.8515 37.074 71.3916 36.9753 72.0015 36.9753V39.0944C71.7459 39.0769 71.5717 39.0653 71.4845 39.0653C70.8282 39.0653 70.3113 39.2511 69.9338 39.6169C69.5621 39.9826 69.3762 40.5399 69.3762 41.2714V45.016H67.0763V37.0915H69.2717V38.1364C69.5447 37.7533 69.9164 37.463 70.3868 37.2656V37.2714Z" fill="#67FF9A"/>
<path d="M78.7677 44.6386C78.5412 44.807 78.2624 44.9289 77.9371 45.016C77.6061 45.0973 77.2634 45.1437 76.8975 45.1437C75.9566 45.1437 75.2248 44.9057 74.7079 44.4238C74.191 43.942 73.9354 43.2337 73.9354 42.299V39.0421H72.71V37.2772H73.9354V35.344H76.2354V37.2772H78.2101V39.0421H76.2354V42.27C76.2354 42.6067 76.3225 42.8621 76.4909 43.0421C76.6652 43.2221 76.9033 43.315 77.2228 43.315C77.5887 43.315 77.8965 43.2163 78.152 43.0189L78.7735 44.6386H78.7677Z" fill="#67FF9A"/>
</g>
<defs>
<clipPath id="clip0_32_92">
<rect width="79" height="48" fill="white"/>
</clipPath>
</defs>
</svg>
