<?xml version="1.0" encoding="UTF-8"?>
<svg id="Livello_1" data-name="Livello 1" xmlns="http://www.w3.org/2000/svg" xmlns:xlink="http://www.w3.org/1999/xlink" viewBox="0 0 40 40">
  <defs>
    <style>
      .cls-1 {
        fill: none;
      }

      .cls-2 {
        clip-path: url(#clippath);
      }

      .cls-3 {
        fill: #67ff9a;
      }

      .cls-4 {
        fill: url(#Sfumatura_senza_nome_187);
      }
    </style>
    <linearGradient id="Sfumatura_senza_nome_187" data-name="Sfumatura senza nome 187" x1="0" y1="20" x2="40" y2="20" gradientUnits="userSpaceOnUse">
      <stop offset="0" stop-color="#332671"/>
      <stop offset=".5" stop-color="#201635"/>
      <stop offset="1" stop-color="#1a1628"/>
    </linearGradient>
    <clipPath id="clippath">
      <rect class="cls-1" x="5.06" y="10.92" width="29.89" height="18.16"/>
    </clipPath>
  </defs>
  <rect class="cls-4" width="40" height="40" rx="3.07" ry="3.07"/>
  <g class="cls-2">
    <path class="cls-3" d="M14.37,21.35l-.03-4.76-2.27,3.82h-1.55l-2.27-3.65v4.59h-3.21v-10.43h2.89l3.4,5.56,3.31-5.56h2.89l.03,10.43h-3.21Z"/>
    <path class="cls-3" d="M24.22,16.55l-1.98,4.9c-.25.63-.56,1.07-.94,1.32-.38.25-.83.38-1.38.38-.27,0-.54-.04-.81-.12s-.49-.18-.65-.31l.66-1.36c.1.08.21.14.34.18.13.05.25.07.36.07.22,0,.38-.06.49-.19l-2.02-4.87h2.04l.99,2.57,1.01-2.57h1.88Z"/>
    <path class="cls-3" d="M29.41,18.73h-.95v2.62h-3.52v-10.43h5.03c.96,0,1.8.16,2.52.48.72.32,1.27.78,1.65,1.37.39.6.58,1.29.58,2.09,0,.74-.17,1.4-.51,1.95-.34.56-.83,1-1.46,1.33l2.19,3.22h-3.76l-1.77-2.62h0ZM30.82,13.95c-.24-.21-.6-.32-1.07-.32h-1.28v2.44h1.28c.48,0,.84-.11,1.07-.32.24-.21.36-.51.36-.9s-.12-.69-.36-.9h0Z"/>
    <path class="cls-3" d="M8.69,27.95v-2.34s-1.16,1.93-1.16,1.93h-.41l-1.14-1.88v2.29h-.85v-3.9h.75l1.46,2.42,1.44-2.42h.74v3.9s-.84,0-.84,0h0Z"/>
    <path class="cls-3" d="M13.38,24.96l-1.36,3.18c-.14.34-.31.59-.51.73-.2.14-.45.21-.73.21-.16,0-.31-.02-.46-.07-.15-.05-.28-.12-.37-.2l.32-.62c.07.06.15.11.23.14.09.03.17.05.26.05.12,0,.22-.03.29-.09.07-.06.14-.15.2-.29v-.03s-1.29-3.02-1.29-3.02h.9l.84,2.03.85-2.03h.84Z"/>
    <path class="cls-3" d="M17.86,27.95l-.75-1.09h-.83v1.09h-.9v-3.9h1.69c.34,0,.65.06.9.17.25.12.45.28.59.49.14.21.21.46.21.75s-.07.54-.21.75c-.14.21-.34.37-.59.48l.87,1.25h-.97ZM17.64,24.96c-.14-.12-.35-.18-.62-.18h-.74v1.36h.74c.27,0,.48-.06.62-.18.14-.12.21-.29.21-.5s-.07-.39-.21-.51Z"/>
    <path class="cls-3" d="M22.34,26.7h-2.27c.04.19.14.33.29.44.15.11.34.16.57.16.16,0,.29-.02.42-.07.12-.05.23-.12.34-.22l.46.5c-.28.32-.69.49-1.24.49-.34,0-.64-.07-.9-.2-.26-.13-.46-.31-.6-.55-.14-.24-.21-.5-.21-.8s.07-.56.21-.8c.14-.24.33-.42.57-.55.24-.13.52-.2.82-.2s.56.06.8.19c.24.13.42.31.56.54.14.24.2.51.2.82,0,.01,0,.09-.02.24h0ZM20.3,25.73c-.13.11-.22.26-.25.46h1.48c-.03-.19-.11-.34-.25-.45-.13-.11-.3-.17-.49-.17s-.36.05-.5.17Z"/>
    <path class="cls-3" d="M25.47,25.1c.23.13.41.31.54.54.13.23.2.5.2.81s-.07.58-.2.81c-.13.23-.31.41-.54.54-.23.13-.48.19-.76.19-.38,0-.68-.12-.9-.36v1.4h-.87v-4.08h.83v.34c.22-.26.53-.39.94-.39.28,0,.53.06.76.19h0ZM25.11,27.06c.14-.15.22-.35.22-.6s-.07-.45-.22-.6c-.14-.15-.33-.23-.55-.23s-.41.07-.55.23c-.14.15-.22.35-.22.6s.07.45.22.6c.14.15.33.23.55.23s.41-.07.55-.23Z"/>
    <path class="cls-3" d="M27.36,27.8c-.25-.13-.45-.31-.59-.55-.14-.24-.21-.5-.21-.8s.07-.56.21-.8c.14-.24.34-.42.59-.55.25-.13.53-.2.85-.2s.6.07.85.2c.25.13.44.31.59.55.14.24.21.5.21.8s-.07.56-.21.8c-.14.24-.34.42-.59.55-.25.13-.53.2-.85.2s-.6-.07-.85-.2ZM28.76,27.06c.14-.15.22-.35.22-.6s-.07-.45-.22-.6c-.14-.15-.33-.23-.55-.23s-.41.07-.55.23c-.15.15-.22.35-.22.6s.07.45.22.6c.15.15.33.23.55.23s.41-.07.55-.23Z"/>
    <path class="cls-3" d="M31.69,25.02c.18-.07.38-.11.61-.11v.8c-.1,0-.16-.01-.2-.01-.25,0-.44.07-.59.21-.14.14-.21.35-.21.63v1.42h-.87v-3h.83v.4c.1-.14.24-.25.42-.33h0Z"/>
    <path class="cls-3" d="M34.86,27.81c-.09.06-.19.11-.31.14-.13.03-.25.05-.39.05-.36,0-.63-.09-.83-.27-.2-.18-.29-.45-.29-.8v-1.23h-.46v-.67h.46v-.73h.87v.73h.75v.67h-.75v1.22c0,.13.03.22.1.29.07.07.16.1.28.1.14,0,.25-.04.35-.11l.24.61h0Z"/>
  </g>
</svg>