<svg width="429" height="577" viewBox="0 0 429 577" fill="none" xmlns="http://www.w3.org/2000/svg">
<mask id="mask0_2021_10" style="mask-type:luminance" maskUnits="userSpaceOnUse" x="0" y="0" width="429" height="577">
<path d="M428.99 0H0V576.3H428.99V0Z" fill="white"/>
</mask>
<g mask="url(#mask0_2021_10)">
<path d="M149.03 198.63C148.01 198.63 147.01 198.68 146.02 198.78L138.13 160.21C153.35 153.11 163.9 137.68 163.9 119.78C163.9 95.16 143.94 75.19 119.31 75.19C94.68 75.19 74.72 95.15 74.72 119.78C74.72 144.41 94.68 164.37 119.31 164.37C119.51 164.37 119.7 164.37 119.9 164.37L135.43 201.9C125.72 206.86 119.06 216.95 119.06 228.61C119.06 245.16 132.48 258.59 149.04 258.59C165.6 258.59 179.02 245.17 179.02 228.61C179.02 212.05 165.6 198.63 149.04 198.63H149.03Z" fill="#6B4D9A"/>
<path d="M334.14 120.11C333.15 120.33 332.18 120.59 331.23 120.9L315.28 84.91C328.63 74.73 335.64 57.4 331.81 39.91C326.55 15.85 302.78 0.620025 278.73 5.88003C254.67 11.14 239.44 34.91 244.7 58.96C249.96 83.02 273.73 98.25 297.78 92.99C297.97 92.95 298.16 92.9 298.36 92.86L321.55 126.21C313.12 133.13 308.77 144.41 311.26 155.8C314.8 171.97 330.78 182.22 346.95 178.68C363.12 175.14 373.37 159.16 369.83 142.99C366.29 126.82 350.31 116.57 334.14 120.11Z" fill="#6B4D9A"/>
<path d="M454.25 332.86C454.03 331.87 453.77 330.9 453.46 329.95L489.45 314C499.63 327.35 516.96 334.36 534.45 330.53C558.51 325.27 573.74 301.5 568.48 277.45C563.22 253.39 539.45 238.16 515.4 243.42C491.34 248.68 476.11 272.45 481.37 296.5C481.41 296.69 481.46 296.88 481.5 297.08L448.15 320.27C441.23 311.84 429.95 307.49 418.56 309.98C402.39 313.52 392.14 329.5 395.68 345.67C399.22 361.84 415.2 372.09 431.37 368.55C447.54 365.01 457.79 349.03 454.25 332.86Z" fill="#6B4D9A"/>
<path d="M238.48 461.03C239.47 460.81 240.44 460.55 241.39 460.24L257.34 496.23C243.99 506.41 236.98 523.74 240.81 541.23C246.07 565.29 269.84 580.52 293.89 575.26C317.95 570 333.18 546.23 327.92 522.18C322.66 498.12 298.89 482.89 274.84 488.15C274.65 488.19 274.46 488.24 274.26 488.28L251.07 454.93C259.5 448.01 263.85 436.73 261.36 425.34C257.82 409.17 241.84 398.92 225.67 402.46C209.5 406 199.25 421.98 202.79 438.15C206.33 454.32 222.31 464.57 238.48 461.03Z" fill="#6B4D9A"/>
<path d="M174.01 328.98C170.9 325.16 167.05 322.31 162.83 320.46C162.74 320.42 162.65 320.38 162.56 320.34C162.33 320.24 162.11 320.15 161.88 320.06C150.75 315.51 137.94 318.11 129.46 326.54L99.14 301.71C106.47 286.6 104.92 267.97 93.62 254.09C78.08 234.99 50 232.09 30.9 247.63C11.8 263.17 8.89996 291.25 24.44 310.35C39.98 329.45 68.06 332.35 87.16 316.81C87.31 316.69 87.46 316.56 87.61 316.43L123.16 335.65C117.24 348.95 121.75 364.94 134.39 373.04C135.25 373.59 136.12 374.09 137.01 374.54L122.84 411.27C106.2 409.03 88.99 416.33 79.33 431.4C66.04 452.13 72.07 479.71 92.8 493C113.53 506.29 141.11 500.26 154.4 479.53C167.69 458.8 161.66 431.22 140.93 417.93C140.76 417.82 140.6 417.72 140.43 417.62L147.6 377.7C155.26 378.51 163.22 376.39 169.67 371.15C182.51 360.7 184.46 341.83 174.01 328.98Z" fill="#6B4D9A"/>
<path d="M228.63 174.95C243.238 174.95 255.08 163.108 255.08 148.5C255.08 133.892 243.238 122.05 228.63 122.05C214.022 122.05 202.18 133.892 202.18 148.5C202.18 163.108 214.022 174.95 228.63 174.95Z" fill="#6B4D9A"/>
<path d="M177.74 54.04C192.348 54.04 204.19 42.1979 204.19 27.59C204.19 12.9821 192.348 1.14001 177.74 1.14001C163.132 1.14001 151.29 12.9821 151.29 27.59C151.29 42.1979 163.132 54.04 177.74 54.04Z" fill="#6B4D9A"/>
<path d="M29.13 206.69C43.7379 206.69 55.58 194.848 55.58 180.24C55.58 165.632 43.7379 153.79 29.13 153.79C14.5221 153.79 2.67999 165.632 2.67999 180.24C2.67999 194.848 14.5221 206.69 29.13 206.69Z" fill="#6B4D9A"/>
<path d="M29.13 422.31C43.7379 422.31 55.58 410.468 55.58 395.86C55.58 381.252 43.7379 369.41 29.13 369.41C14.5221 369.41 2.67999 381.252 2.67999 395.86C2.67999 410.468 14.5221 422.31 29.13 422.31Z" fill="#6B4D9A"/>
<path d="M179.25 572.95C193.858 572.95 205.7 561.108 205.7 546.5C205.7 531.892 193.858 520.05 179.25 520.05C164.642 520.05 152.8 531.892 152.8 546.5C152.8 561.108 164.642 572.95 179.25 572.95Z" fill="#6B4D9A"/>
<path d="M395.38 573.45C409.988 573.45 421.83 561.608 421.83 547C421.83 532.392 409.988 520.55 395.38 520.55C380.772 520.55 368.93 532.392 368.93 547C368.93 561.608 380.772 573.45 395.38 573.45Z" fill="#6B4D9A"/>
<path d="M546.01 368.91C531.4 368.91 519.56 380.75 519.56 395.36C519.56 398.55 520.13 401.62 521.16 404.45L486.97 427.42C478.94 417.25 466.51 410.73 452.55 410.73C434.86 410.73 419.62 421.21 412.69 436.3L369.19 429.57C369.34 428.43 369.42 427.27 369.42 426.09C369.42 411.48 357.58 399.64 342.97 399.64C328.36 399.64 316.52 411.48 316.52 426.09C316.52 440.7 328.36 452.54 342.97 452.54C352.32 452.54 360.54 447.68 365.24 440.35L408.78 456.85C409.97 479.99 429.11 498.38 452.55 498.38C475.99 498.38 496.38 478.76 496.38 454.55C496.38 451.8 496.12 449.12 495.64 446.51L527.22 413.98C532.01 418.81 538.66 421.81 546 421.81C560.61 421.81 572.45 409.97 572.45 395.36C572.45 380.75 560.61 368.91 546 368.91H546.01Z" fill="#6B4D9A"/>
<path d="M496.39 121.55C496.39 97.34 476.77 77.72 452.56 77.72C449.81 77.72 447.13 77.98 444.52 78.46L411.99 46.88C416.82 42.09 419.82 35.44 419.82 28.1C419.82 13.49 407.98 1.65002 393.37 1.65002C378.76 1.65002 366.92 13.49 366.92 28.1C366.92 42.71 378.76 54.55 393.37 54.55C396.56 54.55 399.63 53.98 402.46 52.95L425.43 87.14C415.26 95.17 408.74 107.6 408.74 121.56C408.74 139.25 419.22 154.49 434.31 161.42L427.58 204.92C426.44 204.77 425.28 204.69 424.1 204.69C409.49 204.69 397.65 216.53 397.65 231.14C397.65 245.75 409.49 257.59 424.1 257.59C438.71 257.59 450.55 245.75 450.55 231.14C450.55 221.79 445.69 213.57 438.36 208.87L454.86 165.33C478 164.14 496.39 145 496.39 121.56V121.55Z" fill="#6B4D9A"/>
</g>
</svg>
