<svg width="24" height="24" viewBox="0 0 24 24" fill="none" xmlns="http://www.w3.org/2000/svg">
<path d="M23.0565 7.32884C22.4522 5.89989 21.5869 4.61648 20.4852 3.51479C19.3835 2.4131 18.1001 1.54781 16.6712 0.943476C15.1912 0.317485 13.6197 0 12 0C10.3803 0 8.80877 0.317485 7.32884 0.943212C5.89989 1.54754 4.61648 2.41284 3.51479 3.51453C2.4131 4.61622 1.54781 5.89963 0.943476 7.32858C0.317486 8.80877 0 10.3803 0 12C0 13.6197 0.317485 15.1912 0.943212 16.6712C1.54754 18.1001 2.41284 19.3835 3.51453 20.4852C4.61622 21.5869 5.89963 22.4522 7.32858 23.0565C8.80851 23.6825 10.3801 23.9997 11.9997 23.9997C13.6194 23.9997 15.191 23.6822 16.6709 23.0565C18.0998 22.4522 19.3833 21.5869 20.4849 20.4852C21.5866 19.3835 22.4519 18.1001 23.0563 16.6712C23.6822 15.1912 23.9995 13.6197 23.9995 12C23.9995 10.3803 23.6823 8.80877 23.0565 7.32884ZM18.2831 7.0523C15.239 11.5935 12.6968 14.8732 9.95774 17.4728C9.48151 17.9247 8.757 17.8772 8.34892 17.3629C7.48415 16.2728 6.36556 14.6138 5.71817 13.5618C5.58399 13.3436 5.59641 13.0655 5.7504 12.8605C5.96223 12.5784 6.36582 12.5285 6.64025 12.7501C7.9197 13.7831 8.97887 14.4559 8.97887 14.4559C12.3391 11.6603 14.0711 9.96091 17.448 6.3851C17.6141 6.20919 17.878 6.1664 18.0914 6.28077C18.3708 6.4308 18.4599 6.78869 18.2831 7.0523Z" fill="#40C754"/>
</svg>
