<svg width="13" height="13" viewBox="0 0 13 13" fill="none" xmlns="http://www.w3.org/2000/svg">
<g clip-path="url(#clip0_5_546)">
<path d="M7.29005 6.35002L5.65005 5.52002C5.65005 5.52002 5.55005 5.52002 5.55005 5.58002V7.19002C5.55005 7.19002 5.60005 7.27002 5.64005 7.25002L7.28005 6.47002C7.28005 6.47002 7.33005 6.38002 7.28005 6.35002H7.29005Z" fill="white"/>
<path d="M6.38 0C2.86 0 0 2.86 0 6.38C0 9.9 2.86 12.76 6.38 12.76C9.9 12.76 12.76 9.9 12.76 6.38C12.76 2.86 9.9 0 6.38 0ZM9.37 7.25C9.37 7.94 8.81 8.49 8.13 8.49H4.63C3.94 8.49 3.39 7.93 3.39 7.25V5.5C3.39 4.81 3.95 4.26 4.63 4.26H8.13C8.82 4.26 9.37 4.82 9.37 5.5V7.25Z" fill="white"/>
</g>
<defs>
<clipPath id="clip0_5_546">
<rect width="12.76" height="12.76" fill="white"/>
</clipPath>
</defs>
</svg>
